HIERARCHY
ROOT Hips
{
	OFFSET 0.000000 0.000000 0.000000
	CHANNELS 6 Xposition Yposition Zposition Zrotation Yrotation Xrotation 
	JOINT LHipJoint
	{
		OFFSET 0.000000 0.000000 0.000000
		CHANNELS 3 Zrotation Yrotation Xrotation
		JOINT LeftUpLeg
		{
			OFFSET 1.363060 -1.794630 0.839290
			CHANNELS 3 Zrotation Yrotation Xrotation
			JOINT LeftLeg
			{
				OFFSET 2.448110 -6.726130 0.000000
				CHANNELS 3 Zrotation Yrotation Xrotation
				JOINT LeftFoot
				{
					OFFSET 2.562200 -7.039590 0.000000
					CHANNELS 3 Zrotation Yrotation Xrotation
					JOINT LeftToeBase
					{
						OFFSET 0.157640 -0.433110 2.322550
						CHANNELS 3 Zrotation Yrotation Xrotation
						End Site
						{
							OFFSET 0.000000 0.000000 0.000000
						}
					}
				}
			}
		}
	}
	JOINT RHipJoint
	{
		OFFSET 0.000000 0.000000 0.000000
		CHANNELS 3 Zrotation Yrotation Xrotation
		JOINT RightUpLeg
		{
			OFFSET -1.305520 -1.794630 0.839290
			CHANNELS 3 Zrotation Yrotation Xrotation
			JOINT RightLeg
			{
				OFFSET -2.542530 -6.985550 0.000000
				CHANNELS 3 Zrotation Yrotation Xrotation
				JOINT RightFoot
				{
					OFFSET -2.568260 -7.056230 0.000000
					CHANNELS 3 Zrotation Yrotation Xrotation
					JOINT RightToeBase
					{
						OFFSET -0.164730 -0.452590 2.363150
						CHANNELS 3 Zrotation Yrotation Xrotation
						End Site
						{
							OFFSET 0.000000 0.000000 0.000000
						}
					}
				}
			}
		}
	}
	JOINT LowerBack
	{
		OFFSET 0.000000 0.000000 0.000000
		CHANNELS 3 Zrotation Yrotation Xrotation
		JOINT Spine
		{
			OFFSET 0.028270 2.035590 -0.193380
			CHANNELS 3 Zrotation Yrotation Xrotation
			JOINT Spine1
			{
				OFFSET 0.056720 2.048850 -0.042750
				CHANNELS 3 Zrotation Yrotation Xrotation
				JOINT Neck
				{
					OFFSET 0.000000 0.000000 0.000000
					CHANNELS 3 Zrotation Yrotation Xrotation
					JOINT Neck1
					{
						OFFSET -0.054170 1.746240 0.172020
						CHANNELS 3 Zrotation Yrotation Xrotation
						JOINT Head
						{
							OFFSET 0.104070 1.761360 -0.123970
							CHANNELS 3 Zrotation Yrotation Xrotation
							End Site
							{
								OFFSET 0.000000 0.000000 0.000000
							}
						}
					}
				}
				JOINT LeftShoulder
				{
					OFFSET 0.000000 0.000000 0.000000
					CHANNELS 3 Zrotation Yrotation Xrotation
					JOINT LeftArm
					{
						OFFSET 3.362410 1.200890 -0.311210
						CHANNELS 3 Zrotation Yrotation Xrotation
						JOINT LeftForeArm
						{
							OFFSET 4.983000 -0.000000 -0.000000
							CHANNELS 3 Zrotation Yrotation Xrotation
							JOINT LeftHand
							{
								OFFSET 3.483560 -0.000000 -0.000000
								CHANNELS 3 Zrotation Yrotation Xrotation
								JOINT LeftFingerBase
								{
									OFFSET 0.000000 0.000000 0.000000
									CHANNELS 3 Zrotation Yrotation Xrotation
									JOINT LeftHandIndex1
									{
										OFFSET 0.715260 -0.000000 -0.000000
										CHANNELS 3 Zrotation Yrotation Xrotation
										End Site
										{
											OFFSET 0.000000 0.000000 0.000000
										}
									}
								}
								JOINT LThumb
								{
									OFFSET 0.000000 0.000000 0.000000
									CHANNELS 3 Zrotation Yrotation Xrotation
									End Site
									{
										OFFSET 0.000000 0.000000 0.000000
									}
								}
							}
						}
					}
				}
				JOINT RightShoulder
				{
					OFFSET 0.000000 0.000000 0.000000
					CHANNELS 3 Zrotation Yrotation Xrotation
					JOINT RightArm
					{
						OFFSET -3.136600 1.374050 -0.404650
						CHANNELS 3 Zrotation Yrotation Xrotation
						JOINT RightForeArm
						{
							OFFSET -5.241900 -0.000000 -0.000000
							CHANNELS 3 Zrotation Yrotation Xrotation
							JOINT RightHand
							{
								OFFSET -3.444170 -0.000000 -0.000000
								CHANNELS 3 Zrotation Yrotation Xrotation
								JOINT RightFingerBase
								{
									OFFSET 0.000000 0.000000 0.000000
									CHANNELS 3 Zrotation Yrotation Xrotation
									JOINT RightHandIndex1
									{
										OFFSET -0.622530 -0.000000 -0.000000
										CHANNELS 3 Zrotation Yrotation Xrotation
										End Site
										{
											OFFSET 0.000000 0.000000 0.000000
										}
									}
								}
								JOINT RThumb
								{
									OFFSET 0.000000 0.000000 0.000000
									CHANNELS 3 Zrotation Yrotation Xrotation
									End Site
									{
										OFFSET 0.000000 0.000000 0.000000
									}
								}
							}
						}
					}
				}
			}
		}
	}
}
MOTION
Frames: 8
Frame Time: 0.008333
0.187259 17.744495 -14.689517 -2.403902 -1.107553 8.809951 -1.032116 -0.374204 0.217873 -14.211474 1.819760 -20.780732 0.215280 7.717445 21.098648 -0.462010 3.978682 -1.171920 0.000900 0.193200 0.530800 -1.008306 -0.003893 -0.355167 19.961431 3.548790 -19.185489 -0.804262 -8.196677 22.839072 -0.218750 -0.371754 -4.237210 -0.338000 -3.736000 10.335200 1.883356 -0.563625 2.764733 1.516059 -0.602228 -1.072972 0.978863 -0.671268 8.302952 -3.673624 -0.791582 -9.395804 2.532214 -0.204598 34.149451 0.606100 0.316600 12.916600 9.219648 5.492665 0.582161 -97.293448 -9.939758 30.745414 7.254221 -16.316839 -1.025757 -0.064171 -0.709536 -4.478239 25.893032 -4.010219 -1.572800 -7.125000 0.000000 0.000000 -0.451800 26.392100 0.203900 -8.286953 -4.404961 0.275846 93.901335 8.630784 12.300603 -9.588878 21.040242 -2.031283 0.675236 0.919116 30.157930 -21.498544 -23.832265 9.522300 7.125000 0.000000 0.000000 8.727700 -56.436500 -2.460500
0.189161 17.731531 -14.706834 -2.416668 -1.104913 8.891820 -1.002887 -0.399511 0.182397 -14.219748 1.818385 -21.172988 0.280199 7.879520 21.555304 -0.436936 3.858468 -1.322860 0.000785 0.179213 0.492339 -1.029749 0.014635 -0.363023 19.966878 3.589658 -19.565464 -0.864672 -8.343173 23.247801 -0.236739 -0.284231 -4.370150 -0.327457 -3.677947 10.172259 1.894845 -0.564078 2.937247 1.515530 -0.595564 -1.061575 0.971555 -0.666413 8.268570 -3.641211 -0.782127 -9.407010 2.525431 -0.195898 33.933294 0.590328 0.323379 12.828007 9.217688 5.491815 0.581194 -97.211886 -9.847622 30.742049 7.282205 -16.369481 -1.032156 -0.066119 -0.710770 -4.720054 26.025456 -4.201530 -1.675215 -7.125000 0.000000 0.000000 -0.350616 26.177152 0.159982 -8.282619 -4.404517 0.275309 93.820145 8.514761 12.341896 -9.610823 21.079755 -2.040235 0.675504 0.920414 30.020866 -21.548052 -23.818261 9.542411 7.125000 0.000000 0.000000 8.667073 -56.434021 -2.442672
0.191396 17.716894 -14.725449 -2.426826 -1.103235 8.976792 -0.970453 -0.426301 0.144083 -14.235134 1.821647 -21.596708 0.352444 8.055064 22.052295 -0.409186 3.725857 -1.486711 0.000641 0.158710 0.436000 -1.053767 0.034451 -0.371868 19.968963 3.629635 -19.982759 -0.932814 -8.504873 23.700411 -0.255486 -0.191954 -4.505149 -0.313375 -3.598636 9.950076 1.904617 -0.563367 3.128192 1.514714 -0.586422 -1.047689 0.964469 -0.660564 8.235191 -3.604258 -0.773539 -9.432310 2.515348 -0.187508 33.704238 0.571960 0.329994 12.738843 9.215409 5.490792 0.579916 -97.126744 -9.764814 30.743276 7.306685 -16.416217 -1.037862 -0.066779 -0.712000 -4.984185 26.139327 -4.340096 -1.751276 -7.125000 0.000000 0.000000 -0.263872 26.020848 0.121312 -8.277566 -4.403732 0.274642 93.733140 8.399399 12.370004 -9.628550 21.112325 -2.047603 0.676092 0.921464 29.908748 -21.594374 -23.800339 9.559547 7.125000 0.000000 0.000000 8.608175 -56.426850 -2.424385
0.193719 17.700597 -14.745766 -2.431102 -1.098359 9.065140 -0.934867 -0.454526 0.102964 -14.259505 1.825305 -22.051453 0.431974 8.243182 22.586852 -0.379051 3.582004 -1.660597 0.000412 0.131861 0.362250 -1.080352 0.055530 -0.381538 19.963537 3.676578 -20.436019 -1.009148 -8.681806 24.197570 -0.273921 -0.103179 -4.644826 -0.298101 -3.510396 9.703285 1.908688 -0.562763 3.341255 1.513460 -0.576238 -1.032012 0.959733 -0.654670 8.199058 -3.567119 -0.766637 -9.471795 2.506915 -0.181333 33.464359 0.553663 0.335621 12.650423 9.212851 5.489142 0.578219 -97.038020 -9.690734 30.749332 7.333782 -16.467993 -1.045470 -0.064704 -0.713136 -5.277198 26.197733 -4.369791 -1.769933 -7.125000 0.000000 0.000000 -0.218915 25.987049 0.100861 -8.272164 -4.402509 0.273731 93.642753 8.285746 12.377019 -9.640400 21.134865 -2.052537 0.677150 0.922297 29.832811 -21.637220 -23.786260 9.576390 7.125000 0.000000 0.000000 8.554942 -56.423130 -2.408431
0.196041 17.682585 -14.767844 -2.427293 -1.088774 9.156668 -0.896312 -0.483939 0.059349 -14.294145 1.826786 -22.535236 0.518716 8.442776 23.156268 -0.346849 3.428948 -1.843975 0.000241 0.099975 0.274695 -1.109527 0.077664 -0.391773 19.947849 3.736518 -20.921328 -1.093995 -8.873355 24.737939 -0.291338 -0.022826 -4.794465 -0.282675 -3.418967 9.447523 1.903017 -0.562285 3.578022 1.512078 -0.565232 -1.015523 0.960942 -0.649256 8.155733 -3.532957 -0.761123 -9.519605 2.500492 -0.176636 33.213784 0.536158 0.340250 12.561424 9.210303 5.486709 0.576195 -96.947187 -9.617032 30.761661 7.367995 -16.533207 -1.056584 -0.059222 -0.714209 -5.580852 26.196750 -4.254974 -1.712724 -7.125000 0.000000 0.000000 -0.218494 26.116028 0.099997 -8.266441 -4.400842 0.272572 93.549119 8.168655 12.359121 -9.647204 21.148403 -2.055307 0.678595 0.923201 29.796291 -21.672523 -23.787683 9.594992 7.125000 0.000000 0.000000 8.517250 -56.433897 -2.399964
0.198289 17.663002 -14.791681 -2.416616 -1.079033 9.250552 -0.854855 -0.514154 0.013624 -14.337878 1.828589 -23.045610 0.612485 8.652403 23.757046 -0.313180 3.269741 -2.037444 0.000127 0.063942 0.175758 -1.141203 0.100555 -0.402380 19.921876 3.815941 -21.431442 -1.186883 -9.077635 25.316934 -0.308188 0.051332 -4.957314 -0.268067 -3.330157 9.199393 1.886108 -0.561099 3.838945 1.510601 -0.552352 -0.998348 0.969640 -0.643678 8.103233 -3.509135 -0.756075 -9.565782 2.502910 -0.174010 32.947512 0.523737 0.343311 12.466388 9.207609 5.483116 0.574121 -96.853043 -9.534945 30.786830 7.411224 -16.615254 -1.071102 -0.051748 -0.715281 -5.892270 26.174567 -4.058506 -1.613515 -7.125000 0.000000 0.000000 -0.234019 26.336654 0.105915 -8.260708 -4.399115 0.271370 93.450773 8.039910 12.335481 -9.654173 21.161367 -2.057835 0.680281 0.924349 29.775257 -21.706626 -23.803936 9.618309 7.125000 0.000000 0.000000 8.487521 -56.460097 -2.396928
0.200227 17.641936 -14.817309 -2.402572 -1.075117 9.347633 -0.810516 -0.544835 -0.033974 -14.386749 1.834624 -23.580760 0.712918 8.870079 24.384101 -0.278472 3.106051 -2.239699 0.000012 0.025877 0.071200 -1.175217 0.123979 -0.413335 19.889013 3.917136 -21.961090 -1.286708 -9.291871 25.926548 -0.325399 0.124656 -5.134744 -0.254871 -3.248330 8.970919 1.860447 -0.556810 4.120202 1.508937 -0.534585 -0.979745 0.984224 -0.636453 8.044855 -3.493812 -0.751338 -9.605697 2.512504 -0.173303 32.662598 0.515149 0.345130 12.361972 9.204778 5.478595 0.572331 -96.754979 -9.443570 30.824353 7.459255 -16.705928 -1.087131 -0.043931 -0.716317 -6.190684 26.157582 -3.842766 -1.505288 -7.125000 0.000000 0.000000 -0.246023 26.578746 0.109924 -8.254832 -4.397627 0.270325 93.347591 7.896928 12.319245 -9.665413 21.180968 -2.061835 0.681759 0.925950 29.746834 -21.736409 -23.831850 9.643618 7.125000 0.000000 0.000000 8.467972 -56.497438 -2.399048
0.201769 17.619407 -14.844583 -2.388257 -1.078219 9.448256 -0.763489 -0.575638 -0.083138 -14.437673 1.847801 -24.139267 0.819553 9.093981 25.032284 -0.242809 2.938391 -2.447446 0.000003 -0.019365 -0.053101 -1.211321 0.147637 -0.424445 19.852364 4.040115 -22.502931 -1.392245 -9.512323 26.556659 -0.343235 0.198156 -5.327412 -0.243777 -3.177139 8.772231 1.827478 -0.548757 4.420510 1.507559 -0.511186 -0.959619 1.005747 -0.627202 7.981587 -3.485354 -0.747570 -9.640787 2.525718 -0.174116 32.360787 0.508612 0.345552 12.249667 9.201770 5.473388 0.570781 -96.653792 -9.342681 30.873384 7.504819 -16.792125 -1.101745 -0.037458 -0.717336 -6.464045 26.178442 -3.673093 -1.422189 -7.125000 0.000000 0.000000 -0.229444 26.768689 0.101468 -8.248285 -4.396327 0.269543 93.238994 7.742454 12.300983 -9.676716 21.200307 -2.066113 0.683498 0.927022 29.723416 -21.768763 -23.836225 9.661996 7.125000 0.000000 0.000000 8.434823 -56.510959 -2.392313
